HIERARCHY
ROOT newVegas:Hips
{
	OFFSET 0.000000 96.479958 0.000000
	CHANNELS 6 Xposition Yposition Zposition Xrotation Yrotation Zrotation
	JOINT newVegas:Pelvis
	{
		OFFSET 0.000000 0.000000 0.000000
		CHANNELS 3 Xrotation Yrotation Zrotation
		JOINT newVegas:LeftUpLeg
		{
			OFFSET 18.735201 -5.666702 -4.541200
			CHANNELS 3 Xrotation Yrotation Zrotation
			JOINT newVegas:LeftLeg
			{
				OFFSET -0.021200 -31.938179 0.493100
				CHANNELS 3 Xrotation Yrotation Zrotation
				JOINT newVegas:LeftFoot
				{
					OFFSET 0.021200 -31.938179 -4.336299
					CHANNELS 3 Xrotation Yrotation Zrotation
					JOINT newVegas:LeftToeBase
					{
						OFFSET 0.943001 -26.722000 15.023500
						CHANNELS 3 Xrotation Yrotation Zrotation
						End Site
						{
							OFFSET 0.000000 30.670183 0.000000
						}
					}
				}
				JOINT newVegas:Left_PantLeg
				{
					OFFSET 0.663870 -9.044666 -1.108900
					CHANNELS 3 Xrotation Yrotation Zrotation
					End Site
					{
						OFFSET 1.415995 20.635357 0.000000
					}
				}
			}
		}
		JOINT newVegas:RightUpLeg
		{
			OFFSET -18.735201 -5.666702 -4.541200
			CHANNELS 3 Xrotation Yrotation Zrotation
			JOINT newVegas:RightLeg
			{
				OFFSET 0.018946 -31.938133 0.493100
				CHANNELS 3 Xrotation Yrotation Zrotation
				JOINT newVegas:RightFoot
				{
					OFFSET -0.018946 -31.938126 -4.336299
					CHANNELS 3 Xrotation Yrotation Zrotation
					JOINT newVegas:RightToeBase
					{
						OFFSET -0.943001 -26.722004 15.023500
						CHANNELS 3 Xrotation Yrotation Zrotation
						End Site
						{
							OFFSET 0.000000 30.670187 0.000000
						}
					}
				}
				JOINT newVegas:Right_PantLeg
				{
					OFFSET -0.661674 -9.044716 -1.108900
					CHANNELS 3 Xrotation Yrotation Zrotation
					End Site
					{
						OFFSET -1.415958 20.635269 0.000000
					}
				}
			}
		}
	}
	JOINT newVegas:Spine
	{
		OFFSET 0.000000 10.199997 -0.299500
		CHANNELS 3 Xrotation Yrotation Zrotation
		JOINT newVegas:Spine1
		{
			OFFSET 0.000000 11.900002 -1.516600
			CHANNELS 3 Xrotation Yrotation Zrotation
			JOINT newVegas:Spine2
			{
				OFFSET 0.000000 13.600006 -2.842500
				CHANNELS 3 Xrotation Yrotation Zrotation
				JOINT newVegas:Neck
				{
					OFFSET 0.000000 9.624100 -2.890100
					CHANNELS 3 Xrotation Yrotation Zrotation
					JOINT newVegas:Head
					{
						OFFSET 0.000000 14.068802 -1.351900
						CHANNELS 3 Xrotation Yrotation Zrotation
						JOINT newVegas:Hair_Back
						{
							OFFSET 0.000000 3.231903 -17.524799
							CHANNELS 3 Xrotation Yrotation Zrotation
							End Site
							{
								OFFSET 0.000000 19.849884 0.000000
							}
						}
						JOINT newVegas:Hair_Front
						{
							OFFSET 0.000000 31.260406 4.573800
							CHANNELS 3 Xrotation Yrotation Zrotation
							JOINT newVegas:Hair_Front1
							{
								OFFSET 0.000000 2.284103 11.993300
								CHANNELS 3 Xrotation Yrotation Zrotation
								JOINT newVegas:Hair_Front2
								{
									OFFSET 0.000000 2.284103 11.993300
									CHANNELS 3 Xrotation Yrotation Zrotation
									End Site
									{
										OFFSET 0.000000 12.208862 0.000000
									}
								}
							}
						}
						JOINT newVegas:Jowel
						{
							OFFSET 0.000000 -7.458206 6.864100
							CHANNELS 3 Xrotation Yrotation Zrotation
							End Site
							{
								OFFSET 0.000000 19.849884 0.000000
							}
						}
					}
				}
				JOINT newVegas:LeftShoulder
				{
					OFFSET 15.263000 10.923401 -0.547700
					CHANNELS 3 Xrotation Yrotation Zrotation
					JOINT newVegas:LeftArm
					{
						OFFSET 25.438599 -2.830597 -13.032500
						CHANNELS 3 Xrotation Yrotation Zrotation
						JOINT newVegas:LeftForeArm
						{
							OFFSET 29.960503 0.000000 0.000000
							CHANNELS 3 Xrotation Yrotation Zrotation
							JOINT newVegas:LeftHand
							{
								OFFSET 27.849251 0.000000 0.000000
								CHANNELS 3 Xrotation Yrotation Zrotation
								JOINT newVegas:LeftHandThumb1
								{
									OFFSET 4.487587 -3.305161 6.305391
									CHANNELS 3 Xrotation Yrotation Zrotation
									JOINT newVegas:LeftHandThumb2
									{
										OFFSET 5.480453 -3.164139 3.164143
										CHANNELS 3 Xrotation Yrotation Zrotation
										JOINT newVegas:LeftHandThumb3
										{
											OFFSET 5.159721 -2.978973 2.978967
											CHANNELS 3 Xrotation Yrotation Zrotation
											End Site
											{
												OFFSET 2.494507 5.926697 1.738678
											}
										}
									}
								}
								JOINT newVegas:LeftHandIndex1
								{
									OFFSET 18.578728 -0.527832 5.208049
									CHANNELS 3 Xrotation Yrotation Zrotation
									JOINT newVegas:LeftHandIndex2
									{
										OFFSET 3.192009 0.000000 0.000000
										CHANNELS 3 Xrotation Yrotation Zrotation
										JOINT newVegas:LeftHandIndex3
										{
											OFFSET 3.835129 0.000000 0.000000
											CHANNELS 3 Xrotation Yrotation Zrotation
											End Site
											{
												OFFSET -0.034599 3.816971 0.371180
											}
										}
									}
								}
								JOINT newVegas:LeftHandMiddle1
								{
									OFFSET 18.476105 0.000000 0.000000
									CHANNELS 3 Xrotation Yrotation Zrotation
									JOINT newVegas:LeftHandMiddle2
									{
										OFFSET 3.324875 0.000000 0.000000
										CHANNELS 3 Xrotation Yrotation Zrotation
										JOINT newVegas:LeftHandMiddle3
										{
											OFFSET 4.596550 0.000000 0.000000
											CHANNELS 3 Xrotation Yrotation Zrotation
											End Site
											{
												OFFSET 0.057701 4.578827 0.399218
											}
										}
									}
								}
								JOINT newVegas:LeftHandRing1
								{
									OFFSET 17.732719 0.121887 -4.201567
									CHANNELS 3 Xrotation Yrotation Zrotation
									JOINT newVegas:LeftHandRing2
									{
										OFFSET 2.733170 0.000000 0.000000
										CHANNELS 3 Xrotation Yrotation Zrotation
										JOINT newVegas:LeftHandRing3
										{
											OFFSET 3.178268 0.000000 0.000000
											CHANNELS 3 Xrotation Yrotation Zrotation
											End Site
											{
												OFFSET 0.119102 3.170624 0.185394
											}
										}
									}
								}
								JOINT newVegas:LeftHandPinky1
								{
									OFFSET 15.989624 -0.606689 -7.535461
									CHANNELS 3 Xrotation Yrotation Zrotation
									JOINT newVegas:LeftHandPinky2
									{
										OFFSET 2.538986 0.000000 0.000000
										CHANNELS 3 Xrotation Yrotation Zrotation
										JOINT newVegas:LeftHandPinky3
										{
											OFFSET 2.593102 0.000000 0.000000
											CHANNELS 3 Xrotation Yrotation Zrotation
											End Site
											{
												OFFSET -0.150902 2.584198 0.152708
											}
										}
									}
								}
							}
							JOINT newVegas:Left_Sleeve
							{
								OFFSET 0.267448 -0.649796 0.577675
								CHANNELS 3 Xrotation Yrotation Zrotation
								End Site
								{
									OFFSET 0.000000 15.991241 0.000000
								}
							}
							JOINT newVegas:Left_CapeC
							{
								OFFSET 15.715958 -8.608795 -6.935905
								CHANNELS 3 Xrotation Yrotation Zrotation
								JOINT newVegas:Left_CapeC1
								{
									OFFSET 0.000000 -8.688499 0.000000
									CHANNELS 3 Xrotation Yrotation Zrotation
									End Site
									{
										OFFSET 0.000000 8.688499 0.000000
									}
								}
							}
						}
						JOINT newVegas:Left_CapeB
						{
							OFFSET 26.118385 -8.608795 -7.079235
							CHANNELS 3 Xrotation Yrotation Zrotation
							JOINT newVegas:Left_CapeB1
							{
								OFFSET 0.000000 -8.688499 0.000000
								CHANNELS 3 Xrotation Yrotation Zrotation
								End Site
								{
									OFFSET 0.000000 8.688499 0.000000
								}
							}
						}
						JOINT newVegas:Left_CapeA
						{
							OFFSET 5.115639 -8.608795 -10.395809
							CHANNELS 3 Xrotation Yrotation Zrotation
							JOINT newVegas:Left_CapeA1
							{
								OFFSET 0.000000 -8.688499 0.000000
								CHANNELS 3 Xrotation Yrotation Zrotation
								End Site
								{
									OFFSET 0.000000 8.688499 0.000000
								}
							}
						}
					}
				}
				JOINT newVegas:RightShoulder
				{
					OFFSET -15.263000 10.923401 -0.547700
					CHANNELS 3 Xrotation Yrotation Zrotation
					JOINT newVegas:RightArm
					{
						OFFSET -25.438599 -2.830597 -13.032500
						CHANNELS 3 Xrotation Yrotation Zrotation
						JOINT newVegas:RightForeArm
						{
							OFFSET -29.960503 0.000000 0.000000
							CHANNELS 3 Xrotation Yrotation Zrotation
							JOINT newVegas:RightHand
							{
								OFFSET -27.849251 0.000000 0.000000
								CHANNELS 3 Xrotation Yrotation Zrotation
								JOINT newVegas:RightHandThumb1
								{
									OFFSET -4.487587 -3.305161 6.305391
									CHANNELS 3 Xrotation Yrotation Zrotation
									JOINT newVegas:RightHandThumb2
									{
										OFFSET -5.480453 -3.164139 3.164143
										CHANNELS 3 Xrotation Yrotation Zrotation
										JOINT newVegas:RightHandThumb3
										{
											OFFSET -5.159721 -2.978973 2.978967
											CHANNELS 3 Xrotation Yrotation Zrotation
											End Site
											{
												OFFSET -2.494507 5.926697 1.738678
											}
										}
									}
								}
								JOINT newVegas:RightHandIndex1
								{
									OFFSET -18.578728 -0.527832 5.208049
									CHANNELS 3 Xrotation Yrotation Zrotation
									JOINT newVegas:RightHandIndex2
									{
										OFFSET -3.192009 0.000000 0.000000
										CHANNELS 3 Xrotation Yrotation Zrotation
										JOINT newVegas:RightHandIndex3
										{
											OFFSET -3.835129 0.000000 0.000000
											CHANNELS 3 Xrotation Yrotation Zrotation
											End Site
											{
												OFFSET 0.034599 3.816971 0.371180
											}
										}
									}
								}
								JOINT newVegas:RightHandMiddle1
								{
									OFFSET -18.476105 0.000000 0.000000
									CHANNELS 3 Xrotation Yrotation Zrotation
									JOINT newVegas:RightHandMiddle2
									{
										OFFSET -3.324875 0.000000 0.000000
										CHANNELS 3 Xrotation Yrotation Zrotation
										JOINT newVegas:RightHandMiddle3
										{
											OFFSET -4.596550 0.000000 0.000000
											CHANNELS 3 Xrotation Yrotation Zrotation
											End Site
											{
												OFFSET -0.057701 4.578827 0.399218
											}
										}
									}
								}
								JOINT newVegas:RightHandRing1
								{
									OFFSET -17.732719 0.121887 -4.201567
									CHANNELS 3 Xrotation Yrotation Zrotation
									JOINT newVegas:RightHandRing2
									{
										OFFSET -2.733170 0.000000 0.000000
										CHANNELS 3 Xrotation Yrotation Zrotation
										JOINT newVegas:RightHandRing3
										{
											OFFSET -3.178268 0.000000 0.000000
											CHANNELS 3 Xrotation Yrotation Zrotation
											End Site
											{
												OFFSET -0.119102 3.170624 0.185394
											}
										}
									}
								}
								JOINT newVegas:RightHandPinky1
								{
									OFFSET -15.989624 -0.606689 -7.535461
									CHANNELS 3 Xrotation Yrotation Zrotation
									JOINT newVegas:RightHandPinky2
									{
										OFFSET -2.538986 0.000000 0.000000
										CHANNELS 3 Xrotation Yrotation Zrotation
										JOINT newVegas:RightHandPinky3
										{
											OFFSET -2.593102 0.000000 0.000000
											CHANNELS 3 Xrotation Yrotation Zrotation
											End Site
											{
												OFFSET 0.150902 2.584198 0.152708
											}
										}
									}
								}
							}
							JOINT newVegas:Right_CapeC
							{
								OFFSET -15.715958 -8.608795 -6.935905
								CHANNELS 3 Xrotation Yrotation Zrotation
								JOINT newVegas:Right_CapeC1
								{
									OFFSET 0.000000 -8.688499 0.000000
									CHANNELS 3 Xrotation Yrotation Zrotation
									End Site
									{
										OFFSET 0.000000 8.688499 0.000000
									}
								}
							}
							JOINT newVegas:Right_Sleeve
							{
								OFFSET -0.267448 -0.649994 0.577675
								CHANNELS 3 Xrotation Yrotation Zrotation
								End Site
								{
									OFFSET 0.000000 15.991302 0.000000
								}
							}
						}
						JOINT newVegas:Right_CapeA
						{
							OFFSET -5.115540 -8.608795 -10.395824
							CHANNELS 3 Xrotation Yrotation Zrotation
							JOINT newVegas:Right_CapeA1
							{
								OFFSET 0.000000 -8.688499 0.000000
								CHANNELS 3 Xrotation Yrotation Zrotation
								End Site
								{
									OFFSET 0.000000 8.688499 0.000000
								}
							}
						}
						JOINT newVegas:Right_CapeB
						{
							OFFSET -26.118187 -8.608795 -7.079266
							CHANNELS 3 Xrotation Yrotation Zrotation
							JOINT newVegas:Right_CapeB1
							{
								OFFSET 0.000000 -8.688499 0.000000
								CHANNELS 3 Xrotation Yrotation Zrotation
								End Site
								{
									OFFSET 0.000000 8.688499 0.000000
								}
							}
						}
					}
				}
				JOINT newVegas:Left_Collar
				{
					OFFSET 18.625099 8.655502 8.828100
					CHANNELS 3 Xrotation Yrotation Zrotation
					JOINT newVegas:Left_Collar1
					{
						OFFSET 14.783401 10.540405 -1.259500
						CHANNELS 3 Xrotation Yrotation Zrotation
						End Site
						{
							OFFSET 0.000000 18.199875 0.000000
						}
					}
				}
				JOINT newVegas:Collar_Back
				{
					OFFSET 0.000000 15.630707 -20.132601
					CHANNELS 3 Xrotation Yrotation Zrotation
					End Site
					{
						OFFSET 0.000000 22.523010 0.000000
					}
				}
				JOINT newVegas:Left_Peck
				{
					OFFSET 17.239599 -5.132599 25.482599
					CHANNELS 3 Xrotation Yrotation Zrotation
					End Site
					{
						OFFSET 0.000000 22.523010 0.000000
					}
				}
				JOINT newVegas:Right_Peck
				{
					OFFSET -17.239599 -5.132202 25.482599
					CHANNELS 3 Xrotation Yrotation Zrotation
					End Site
					{
						OFFSET 0.000000 22.523010 0.000000
					}
				}
				JOINT newVegas:Right_Collar
				{
					OFFSET -18.625099 8.655792 8.828100
					CHANNELS 3 Xrotation Yrotation Zrotation
					JOINT newVegas:Right_Collar1
					{
						OFFSET -14.783401 10.539993 -1.259500
						CHANNELS 3 Xrotation Yrotation Zrotation
						End Site
						{
							OFFSET 0.000000 18.199631 0.000000
						}
					}
				}
			}
		}
		JOINT newVegas:Belly
		{
			OFFSET 0.000000 -6.540398 9.014299
			CHANNELS 3 Xrotation Yrotation Zrotation
			End Site
			{
				OFFSET 0.000000 11.566666 0.000000
			}
		}
	}
	JOINT newVegas:ElvisFacialAnim_Joint
	{
		OFFSET 1.000000 -95.330101 -8.825800
		CHANNELS 3 Xrotation Yrotation Zrotation
		End Site
		{
			OFFSET 0.000000 35.315800 0.000000
		}
	}
}
MOTION
Frames: 4
Frame Time: 0.033333
8.418352 82.124100 266.351532 -19.762439 -19.502365 0.043772 0.000000 -0.000002 -0.000000 -39.263260 27.623853 18.285677 50.691574 -5.451579 1.652362 2.590135 10.328584 4.440396 -0.000000 0.000000 0.000000 -0.000000 -0.000000 -0.000000 -19.968984 5.880321 -16.313968 84.565918 1.904391 -5.843418 -7.373965 -5.257263 19.682985 -0.000001 -0.000002 0.000000 0.000000 0.000000 -0.000002 8.728406 5.621938 -3.060690 1.524785 1.691227 -0.764182 1.515450 1.691576 -0.785301 0.591566 0.207928 0.393572 0.591566 0.207926 0.393572 0.000000 -0.000000 -0.000000 0.591566 0.207926 0.393572 0.591637 0.207924 0.393572 -0.000000 -0.000001 -0.000000 0.000000 -0.000000 -0.000000 -0.397193 -18.018319 -16.627817 22.867835 16.432962 -50.027809 -0.000254 -94.732497 -0.000290 -144.495562 -16.028402 -17.730565 6.112360 -22.866910 12.565003 -9.178191 11.281408 -9.531518 0.000000 0.000000 -0.000001 -3.782946 2.939844 -56.473971 3.965368 5.539855 -71.168604 -0.000001 0.000000 0.000001 1.240601 6.593162 -64.089448 3.586358 5.396391 -67.192594 -0.000001 0.000000 -0.000002 3.461312 7.719587 -73.017092 2.226576 4.596325 -51.674950 -0.000000 0.000001 0.000003 4.707694 8.078574 -80.449451 1.636243 4.061994 -43.866695 0.000001 -0.000002 -0.000002 -0.000001 -0.000000 -0.000000 -0.000001 -0.000000 -0.000000 -0.000002 -0.000001 0.000000 -0.000001 0.000001 0.000000 -0.000000 0.000000 0.000000 -0.000001 0.000001 0.000000 0.000000 -0.000000 0.000000 -0.640234 16.631932 17.703341 16.994569 38.352059 24.827162 -0.000889 93.099126 0.000837 -27.998607 -17.831792 32.021436 53.090668 22.418409 -8.093966 49.022658 -14.780948 22.925013 0.000000 -0.000003 -0.000001 -2.441852 5.324342 17.134160 3.485841 -4.507800 75.417713 -0.000001 -0.000000 -0.000001 2.154173 -6.620833 81.973956 6.002920 -4.458889 106.813585 0.000001 -0.000001 -0.000000 10.472387 -6.999600 89.441102 4.988468 -4.645373 94.083670 0.000000 0.000002 0.000002 10.589957 -6.919423 90.237475 5.053306 -4.640289 94.885145 -0.000000 -0.000000 -0.000001 -0.000001 0.000002 -0.000000 0.000000 0.000003 0.000001 -0.000001 0.000001 -0.000000 0.000000 0.000001 -0.000001 0.000001 0.000001 -0.000000 0.000000 0.000001 -0.000001 0.000001 0.000001 -0.000000 -0.000001 0.000000 -0.000000 -0.000001 0.000000 -0.000000 -0.000001 0.000000 -0.000000 -0.000001 0.000000 -0.000000 -0.000001 0.000000 -0.000000 -0.000001 0.000000 -0.000000 -0.000001 0.000000 -0.000000 -0.000001 0.000000 -0.000000 0.000000 -0.000002 -0.000000 
8.719006 84.202713 269.743683 -18.262382 -19.117367 0.137935 0.000001 0.000001 -0.000000 -35.222695 27.546684 16.003167 48.552772 -4.199542 1.620387 -0.049892 9.653885 3.844355 -0.000000 0.000002 0.000000 0.000000 -0.000000 -0.000001 -17.386458 3.014146 -18.145274 78.395962 -2.192778 -5.648981 -14.356527 -7.288914 21.020879 -0.000000 -0.000001 0.000001 0.000003 0.000003 -0.000002 8.086108 5.479750 -3.063903 1.455274 1.655748 -0.817792 1.444811 1.657137 -0.834455 0.616627 0.276907 0.396046 0.616624 0.276905 0.396047 -0.000000 0.000001 0.000000 0.616625 0.276904 0.396046 0.616694 0.276911 0.396046 -0.000000 -0.000001 -0.000000 -0.000000 0.000001 0.000000 -0.410780 -17.937902 -16.787985 21.654160 14.816518 -48.802210 0.000211 -94.932608 0.000199 -143.780851 -17.429374 -15.530515 4.730872 -22.506474 11.908454 -8.489838 10.462168 -9.033603 0.000001 -0.000002 -0.000003 -3.771055 3.035081 -57.007716 3.924366 5.525800 -70.743466 0.000000 -0.000000 -0.000002 1.322530 6.649234 -64.465204 3.565473 5.387624 -66.970831 -0.000001 0.000001 -0.000002 3.549381 7.750377 -73.342646 2.214253 4.586581 -51.520837 -0.000000 -0.000002 -0.000000 4.829281 8.098797 -80.446672 1.642351 4.068345 -43.952950 0.000001 0.000000 -0.000002 -0.000001 0.000002 0.000001 -0.000001 0.000002 0.000001 -0.000002 0.000001 0.000001 -0.000003 -0.000001 -0.000003 -0.000002 -0.000002 -0.000002 -0.000003 -0.000001 -0.000003 -0.000004 -0.000002 -0.000003 -0.720265 16.932570 18.120318 14.234692 35.286612 28.141744 0.000566 93.451782 -0.000666 -26.438815 -18.848146 34.265994 50.770295 21.863195 -6.276569 47.169211 -16.999200 20.039678 -0.000000 -0.000002 -0.000001 -2.398175 5.341815 16.845207 3.423360 -4.491103 74.621135 -0.000000 -0.000001 -0.000001 2.031870 -6.546032 80.319166 5.974894 -4.467232 106.453395 0.000001 -0.000002 -0.000001 10.330982 -7.154293 87.874612 4.851456 -4.653099 92.393492 0.000000 -0.000001 0.000000 10.514426 -7.016879 89.278284 4.866664 -4.652436 92.581479 0.000001 -0.000000 0.000002 -0.000003 -0.000001 0.000002 -0.000003 -0.000001 0.000000 -0.000003 -0.000001 0.000001 -0.000002 0.000001 -0.000000 -0.000001 0.000002 -0.000001 -0.000002 0.000001 -0.000000 -0.000001 0.000002 -0.000000 0.000000 0.000001 0.000000 0.000000 0.000001 0.000000 0.000000 0.000001 0.000000 0.000000 0.000001 0.000000 0.000000 0.000001 0.000000 0.000000 0.000001 0.000000 0.000000 0.000001 0.000000 -0.000000 -0.000001 0.000000 0.000001 0.000001 -0.000000 
8.793086 86.265015 273.168762 -16.846102 -18.018196 0.269464 0.000000 0.000000 -0.000000 -30.811424 27.139777 13.538505 45.412780 -3.328968 1.597619 -1.848531 8.911826 3.205256 0.000000 -0.000000 -0.000000 -0.000000 -0.000001 -0.000000 -13.176036 -1.758240 -18.204812 69.632590 -6.904100 -5.675081 -21.894523 -8.767006 18.745348 0.000001 -0.000001 0.000000 -0.000000 -0.000002 0.000001 7.659022 5.273078 -2.949109 1.432079 1.599288 -0.827804 1.421515 1.601054 -0.841332 0.648347 0.357887 0.368226 0.648349 0.357888 0.368227 -0.000000 -0.000001 -0.000000 0.648348 0.357883 0.368227 0.648417 0.357888 0.368225 0.000000 -0.000001 -0.000000 -0.000000 -0.000001 -0.000000 -0.425851 -17.845724 -16.971842 19.951737 12.685576 -47.498556 -0.000032 -93.698646 -0.000093 -143.428823 -17.547972 -15.097162 3.354324 -22.141522 11.260804 -7.796473 9.651982 -8.523248 0.000003 -0.000006 -0.000003 -3.758203 3.130183 -57.541523 3.883484 5.511391 -70.318396 0.000000 -0.000001 -0.000004 1.405006 6.704471 -64.841137 3.544682 5.378767 -66.749103 -0.000001 0.000000 0.000003 3.637732 7.780363 -73.668310 2.201926 4.576783 -51.366721 0.000001 -0.000004 0.000001 4.950889 8.119066 -80.443953 1.648482 4.074674 -44.039216 -0.000001 -0.000003 0.000000 0.000000 -0.000000 -0.000001 0.000000 -0.000000 -0.000001 -0.000000 -0.000001 -0.000001 0.000000 0.000002 0.000001 0.000001 0.000002 0.000001 0.000000 0.000002 0.000001 0.000001 0.000002 0.000001 -0.668076 17.013243 17.774264 13.136298 33.818213 29.161349 -0.000436 93.362682 0.000437 -25.896521 -18.181195 34.398332 48.347030 21.237570 -4.356392 44.807062 -19.180529 16.647966 0.000001 0.000001 -0.000001 -2.342831 5.320016 16.551821 3.359601 -4.473145 73.805446 -0.000000 0.000001 -0.000001 1.911544 -6.466493 78.627048 5.946442 -4.475502 106.088486 -0.000000 -0.000002 -0.000000 10.174670 -7.307235 86.275924 4.712469 -4.656824 90.681047 0.000001 0.000001 0.000003 10.430541 -7.115416 88.294108 4.676141 -4.657098 90.233991 -0.000000 -0.000000 -0.000001 0.000001 0.000001 0.000001 0.000001 -0.000000 -0.000000 0.000001 0.000001 0.000003 -0.000004 -0.000001 -0.000003 -0.000003 0.000000 -0.000003 -0.000004 -0.000001 -0.000003 -0.000003 -0.000000 -0.000002 -0.000000 0.000001 0.000000 -0.000000 0.000001 0.000000 -0.000000 0.000001 0.000000 -0.000000 0.000001 0.000000 -0.000000 0.000001 0.000000 -0.000000 0.000001 0.000000 -0.000000 0.000001 0.000000 -0.000000 -0.000000 0.000000 0.000000 0.000000 -0.000000 
8.505455 88.185921 276.464722 -15.404472 -16.432428 0.518598 -0.000000 -0.000001 -0.000000 -26.440048 26.299416 11.213607 41.457575 -2.729241 1.590221 -2.729549 8.134470 2.345475 0.000000 -0.000000 -0.000000 -0.000000 -0.000000 -0.000000 -11.336079 -4.185840 -17.444491 60.707951 -5.065959 -5.825400 -23.100005 -9.721474 16.073493 0.000001 0.000000 0.000000 -0.000002 0.000000 -0.000002 7.239317 4.593171 -2.625137 1.402364 1.402258 -0.841833 1.391640 1.406282 -0.848384 0.687561 0.448110 0.347075 0.687560 0.448118 0.347075 -0.000000 -0.000000 -0.000000 0.687527 0.448130 0.347071 0.687702 0.448073 0.347081 0.000000 -0.000000 -0.000000 -0.000000 -0.000000 -0.000000 -0.441261 -17.747871 -17.167378 18.394837 10.729690 -46.297812 -0.000761 -91.871474 -0.000773 -143.405272 -16.969795 -15.477794 1.982650 -21.772271 10.621890 -7.097884 8.851048 -8.000487 -0.000000 0.000001 -0.000004 -3.744458 3.225070 -58.075432 3.842737 5.496706 -69.893312 -0.000000 0.000000 -0.000003 1.488007 6.758767 -65.217235 3.523924 5.369852 -66.527368 -0.000001 -0.000001 0.000001 3.726314 7.809497 -73.994089 2.189660 4.566983 -51.212598 0.000001 -0.000001 0.000002 5.072496 8.139313 -80.441262 1.654612 4.081005 -44.125467 0.000002 -0.000003 -0.000000 -0.000002 0.000000 -0.000000 -0.000002 0.000000 -0.000000 -0.000003 0.000000 -0.000000 0.000002 0.000001 -0.000000 0.000002 0.000001 -0.000000 0.000002 0.000001 -0.000000 0.000001 0.000000 -0.000000 -0.640173 17.486575 17.508191 13.311531 32.906800 28.546629 -0.001256 93.213538 0.001127 -26.237755 -16.899099 33.203547 45.849171 20.531504 -2.355415 41.933987 -21.187617 12.763665 0.000001 -0.000000 -0.000003 -2.278242 5.264949 16.254764 3.297401 -4.454653 73.006034 -0.000001 0.000002 0.000002 1.797915 -6.385643 76.967394 5.918249 -4.483517 105.727579 0.000001 -0.000003 0.000001 10.015649 -7.452762 84.702426 4.574970 -4.656432 88.987543 -0.000002 -0.000003 -0.000001 10.345834 -7.210416 87.330184 4.488588 -4.654098 87.923570 0.000000 0.000003 -0.000002 0.000001 -0.000004 -0.000004 0.000001 -0.000003 -0.000001 0.000001 -0.000004 -0.000003 -0.000002 -0.000002 0.000003 -0.000002 -0.000002 0.000004 -0.000002 -0.000002 0.000003 -0.000002 -0.000002 0.000005 0.000000 -0.000001 -0.000000 0.000000 -0.000001 -0.000000 0.000000 -0.000001 -0.000000 0.000000 -0.000001 -0.000000 0.000000 -0.000001 -0.000000 0.000000 -0.000001 -0.000000 0.000000 -0.000001 -0.000000 -0.000000 0.000000 -0.000000 -0.000000 -0.000001 -0.000000 
